<svg xmlns="http://www.w3.org/2000/svg" viewBox="0 0 1024 1024">
  <circle cx="512" cy="512" r="512" fill="#0B0C0C"/>
  <g transform="translate(0, -100)">
    <path fill="#00bba7" d="M498 245c40 33 65 86 70 137 2 25-3 50-11 74l-1 2c-8 26-23 51-37 74-14 26-29 53-33 82v2c-4 27 0 54 16 77a416 416 0 0 0 4 5l1 2c7 8 18 16 28 18 15 1 27 0 38-10l2-2c12-10 19-27 20-42 1-25-3-46-11-70-10-34-10-70 7-103l1-3c8-14 19-28 32-38v6l-1 19v3c0 10 0 20 3 30l1 2c7 26 23 47 41 68 31 37 58 84 65 133l1 4v25c0 12 0 23-3 35l-1 2c-7 35-23 65-48 90a657 657 0 0 0-6 6l-25 22-2 2a739 739 0 0 1-129 73l-1 1a367 367 0 0 0-5 3h-5l-11-6-25-15-1-1a6180 6180 0 0 0-26-16l-9-5-6-4c-21-12-42-25-61-41l-3-3c-13-10-25-22-35-35l-2-3c-19-23-30-50-37-78l-1-3c-6-26-5-58 0-85l1-3c2-13 6-26 10-39l1-3c13-41 36-78 61-113l2-2a926 926 0 0 1 52-67l2-3 5-5 19-24 4-6 22-32 1-2c20-31 28-66 28-103v-2l-2-30Z"/>
    <path fill="#00bba7" d="M624 450v6l-1 19v3c0 10 0 20 3 30l1 2c7 26 23 47 41 68 31 37 58 84 65 133l1 4v25c0 12 0 23-3 35l-1 2c-7 35-23 65-48 90a657 657 0 0 0-6 6l-25 22-2 2a755 755 0 0 1-137 75 159 159 0 0 1 5-6h2l1-3 4-3c8-7 15-15 22-24l2-3c14-17 25-37 32-58l1-3c4-13 6-26 6-41v-2c0-36-18-67-43-93l-2-2-13-11-12-11-6-5 1-2 2 2c13 9 23 12 39 11 8-2 14-5 20-10l2-2c12-10 19-27 20-42 1-25-3-46-11-70-10-34-10-70 7-103l1-3c8-14 19-28 32-38Z"/>
    <path fill="#00bba7" d="M498 245c20 17 35 37 47 60l1 3v5l-1-2a4818 4818 0 0 0-4-8l-2-3c-4-10-4-10-11-17l-3-6c-6-8-13-17-21-24l-4 4-2-12Z"/>
    <path fill="#00bba7" d="M624 450c2 3 0 6 0 9-2 8-3 17-3 25h-1v-18l1-7-8 3c2-4 4-6 7-8l2-2 2-2Z"/>
    <path fill="#00bba7" d="m511 705 9 6 13 7-3 1-2-1v2h2l-1 2-1-1-15-12-2-2v-2Z"/>
    <path fill="#00bba7" d="M438 429h1v5h-3l-1 2-4 3 7-10Z"/>
    <path fill="#00bba7" d="m429 440 1 2 2 1-2 1-4 4a83 83 0 0 1-4 3l4-8 2-2 1-1Z"/>
    <path fill="#00bba7" d="m309 620 1 9-3 1-1 2 3-12Z"/>
    <path fill="#00bba7" d="m459 401 1 2-3 5h-2l-1 3-2-1 7-9Z"/>
    <path fill="#00bba7" d="m679 869 3 1c-3 5-3 5-6 6l-1-3 4-4Z"/>
    <path fill="#00bba7" d="m404 471 1 3-5 5h-3l7-8Z"/>
    <path fill="#00bba7" d="m727 787 2 2 2 2 2 6h-2v3h-2l2-9Z"/>
    <path fill="#00bba7" d="m511 705 9 7c-4 0-6-2-9-5v-2Z"/>
    <path fill="#00bba7" d="m498 245 4 4-2 4h-1l-1-8Z"/>
  </g>
</svg>